<?xml version="1.0" standalone="no"?>
<!DOCTYPE svg PUBLIC "-//W3C//DTD SVG 20010904//EN"
 "http://www.w3.org/TR/2001/REC-SVG-20010904/DTD/svg10.dtd">
<svg version="1.0" xmlns="http://www.w3.org/2000/svg"
 width="559.000000pt" height="447.000000pt" viewBox="0 0 559.000000 447.000000"
 preserveAspectRatio="xMidYMid meet">

<g transform="translate(0.000000,447.000000) scale(0.100000,-0.100000)"
fill="#000000" stroke="none">
<path d="M640 2866 c0 -649 4 -1066 9 -1066 10 0 283 101 339 125 l32 15 0
924 0 924 -127 47 c-127 47 -202 76 -235 90 -17 7 -18 -48 -18 -1059z"/>
<path d="M1090 2865 c0 -648 4 -1065 9 -1065 10 0 283 101 339 125 l32 15 0
924 0 924 -122 45 c-68 25 -152 57 -187 71 -36 14 -66 26 -68 26 -2 0 -3 -479
-3 -1065z"/>
<path d="M1540 2865 c0 -648 4 -1065 9 -1065 8 0 81 27 386 143 100 38 164 61
340 127 77 28 156 58 175 65 19 8 68 26 108 41 l72 28 -2 660 -3 659 -170 64
c-93 35 -204 77 -245 92 -297 110 -600 224 -628 236 -18 8 -35 15 -37 15 -3 0
-5 -479 -5 -1065z m545 746 c187 -62 366 -122 398 -133 l57 -20 0 -399 0 -399
-34 0 c-18 0 -56 -4 -84 -10 -28 -5 -86 -14 -129 -19 -43 -6 -153 -22 -245
-35 -91 -14 -206 -30 -255 -36 -48 -6 -98 -14 -110 -17 l-23 -5 0 605 0 606
43 -13 c23 -7 195 -64 382 -125z m345 -1031 c0 -11 -7 -20 -15 -20 -15 0 -21
21 -8 33 12 13 23 7 23 -13z m38 -20 c1 -26 -4 -40 -12 -40 -9 0 -13 14 -13
40 0 25 4 40 12 40 8 0 13 -15 13 -40z m-84 -3 c-7 -19 -20 -22 -29 -7 -9 15
16 43 27 32 5 -5 6 -16 2 -25z m-346 -148 l-3 -151 -175 -59 c-96 -32 -181
-59 -187 -59 -10 0 -13 42 -13 178 l0 179 108 17 c59 10 141 23 182 31 41 7
78 13 83 14 4 1 6 -67 5 -150z m389 68 c-2 -48 -5 -62 -17 -62 -11 0 -14 8
-12 29 4 28 3 28 -13 12 -13 -12 -21 -14 -28 -7 -8 8 -8 14 1 23 8 8 8 15 1
24 -13 16 -3 34 18 34 11 0 14 -6 9 -26 -5 -19 -3 -25 6 -21 7 2 12 12 10 22
-4 23 6 48 17 41 5 -4 9 -34 8 -69z m43 13 c0 -11 -7 -20 -15 -20 -15 0 -21
21 -8 33 12 13 23 7 23 -13z"/>
<path d="M1760 3531 c8 -5 87 -30 175 -56 88 -27 204 -61 258 -77 l97 -30 0
-95 c0 -94 0 -95 -22 -90 -28 7 -248 45 -336 58 -34 5 -81 13 -105 19 -55 12
-80 12 -72 0 3 -5 17 -10 30 -10 14 0 60 -7 102 -14 78 -15 193 -35 331 -57
l72 -12 0 -95 0 -95 -127 6 c-284 14 -417 17 -398 9 11 -5 121 -12 245 -16
123 -4 237 -10 252 -13 l28 -5 0 -93 0 -93 -107 -7 c-172 -10 -427 -35 -433
-42 -3 -3 33 -3 80 1 47 4 146 11 220 16 74 6 159 13 188 16 l52 6 0 -31 c0
-30 1 -31 49 -31 26 0 76 -3 110 -6 l61 -7 0 373 c0 335 -2 372 -16 366 -9 -3
-58 -6 -110 -6 -77 0 -94 -3 -94 -15 0 -8 -4 -15 -10 -15 -5 0 -83 22 -172 48
-354 106 -385 114 -348 93z"/>
<path d="M1940 2525 c-41 -7 -117 -19 -167 -26 l-93 -13 0 -68 0 -67 38 -9
c78 -19 229 -52 265 -58 l37 -6 0 131 c0 72 -1 130 -2 130 -2 -1 -37 -7 -78
-14z"/>
<path d="M2951 3271 c-10 -6 -61 -171 -61 -197 0 -2 9 -4 19 -4 12 0 21 9 25
26 6 22 11 25 44 22 30 -2 38 -7 40 -25 2 -15 10 -23 23 -23 17 0 19 5 13 38
-13 76 -36 157 -47 164 -16 10 -39 10 -56 -1z m43 -62 c10 -52 8 -59 -20 -59
-25 0 -26 2 -19 37 12 63 29 73 39 22z"/>
<path d="M3549 3259 c-18 -18 -21 -30 -17 -96 4 -85 11 -93 78 -93 67 0 74 8
78 93 5 91 -12 117 -78 117 -27 0 -47 -7 -61 -21z m99 -86 l3 -63 -41 0 -40 0
0 58 c0 32 3 62 7 66 4 4 21 6 38 4 30 -3 30 -4 33 -65z"/>
<path d="M4074 3272 c-10 -6 -41 -98 -58 -174 -5 -23 -3 -28 13 -28 13 0 21 8
23 23 2 18 10 23 40 25 33 3 38 0 44 -22 4 -17 13 -26 26 -26 17 0 20 5 15 28
-4 15 -13 58 -21 96 -8 38 -21 73 -28 77 -16 11 -39 11 -54 1z m40 -54 c13
-49 7 -68 -19 -68 -24 0 -26 2 -19 38 10 58 27 71 38 30z"/>
<path d="M4648 3273 l-28 -4 0 -100 0 -99 59 0 c80 0 91 12 91 101 0 100 -21
117 -122 102z m72 -98 l0 -65 -30 0 -30 0 0 65 0 65 30 0 30 0 0 -65z"/>
<path d="M3122 3180 c3 -103 8 -110 78 -110 70 0 75 7 78 110 l4 90 -26 0
c-26 0 -26 -1 -26 -80 l0 -80 -35 0 -35 0 0 80 c0 75 -1 80 -21 80 -20 0 -21
-4 -17 -90z"/>
<path d="M3330 3255 c0 -9 9 -15 25 -15 25 0 25 -1 25 -85 0 -84 0 -85 25 -85
25 0 25 1 25 85 0 78 2 85 20 85 11 0 20 7 20 15 0 12 -14 15 -70 15 -56 0
-70 -3 -70 -15z"/>
<path d="M3760 3170 c0 -93 1 -100 20 -100 17 0 19 8 22 68 l3 67 17 -37 c9
-21 23 -38 31 -38 7 0 22 17 33 38 l19 37 3 -67 c3 -60 5 -68 22 -68 19 0 20
7 20 100 0 92 -2 100 -19 100 -12 0 -28 -15 -43 -42 -13 -22 -27 -41 -32 -41
-6 1 -19 19 -30 42 -15 29 -27 41 -43 41 -22 0 -23 -3 -23 -100z"/>
<path d="M4230 3255 c0 -8 9 -15 20 -15 18 0 20 -7 20 -85 0 -84 0 -85 25 -85
25 0 25 1 25 85 0 78 2 85 20 85 11 0 20 7 20 15 0 12 -14 15 -65 15 -51 0
-65 -3 -65 -15z"/>
<path d="M4430 3170 l0 -100 60 0 c53 0 60 2 60 20 0 17 -7 20 -40 20 -33 0
-40 3 -40 20 0 16 7 20 35 20 28 0 35 4 35 20 0 16 -7 20 -35 20 -31 0 -35 3
-35 25 0 23 4 25 40 25 29 0 40 4 40 15 0 12 -13 15 -60 15 l-60 0 0 -100z"/>
<path d="M2740 2750 l0 -150 94 0 c127 0 126 -1 126 149 0 150 -1 151 -128
151 l-92 0 0 -150z m155 0 l0 -95 -42 -3 -43 -3 0 101 0 101 43 -3 42 -3 0
-95z"/>
<path d="M3080 2750 l0 -150 90 0 c89 0 90 0 90 25 0 22 -4 24 -57 27 -57 3
-58 3 -61 36 l-3 32 55 0 c56 0 56 0 56 30 0 30 -1 30 -55 30 -54 0 -55 0 -55
30 l0 30 60 0 60 0 0 30 0 30 -90 0 -90 0 0 -150z"/>
<path d="M3360 2750 l0 -150 85 0 c84 0 85 0 85 25 0 23 -3 25 -50 25 l-50 0
0 125 0 125 -35 0 -35 0 0 -150z"/>
<path d="M3630 2750 l0 -150 35 0 35 0 0 150 0 150 -35 0 -35 0 0 -150z"/>
<path d="M3837 2882 c-14 -15 -17 -41 -17 -133 0 -150 3 -154 104 -154 93 0
105 11 106 103 l0 62 -45 0 c-41 0 -45 -2 -45 -25 0 -16 6 -25 15 -25 10 0 15
-10 15 -31 0 -29 -1 -30 -42 -27 l-43 3 0 95 0 95 68 3 c64 3 67 4 67 27 0 25
-2 25 -83 25 -69 0 -87 -3 -100 -18z"/>
<path d="M4140 2750 l0 -150 35 0 35 0 0 60 0 60 50 0 50 0 0 -60 0 -60 30 0
30 0 0 150 0 150 -30 0 -30 0 0 -60 0 -60 -50 0 -50 0 0 60 0 60 -35 0 -35 0
0 -150z"/>
<path d="M4470 2870 c0 -28 3 -30 35 -30 l35 0 0 -120 0 -120 30 0 30 0 0 120
0 120 35 0 c32 0 35 2 35 30 l0 30 -100 0 -100 0 0 -30z"/>
<path d="M4767 2882 c-12 -13 -17 -37 -17 -75 0 -52 2 -58 30 -72 16 -8 48
-15 70 -15 41 0 41 -1 38 -32 l-3 -33 -67 -3 c-65 -3 -68 -4 -68 -27 0 -25 2
-25 83 -25 102 0 117 11 117 87 0 63 -21 84 -90 91 -47 4 -50 6 -50 33 0 29 0
29 65 29 l65 0 0 30 0 30 -78 0 c-64 0 -82 -4 -95 -18z"/>
</g>
</svg>
